# xmcd
#
# Track frame offsets: 
#        150
#        21037
#        39374
#        61163
#        80567
#        98455
#        121560
#        144675
#        167542
#        188741
#        209463
#        230828
#        248183
#
# Disc length: 3567 seconds
#
# Revision: 0
# Processed by: cddbd v1.5.2PL0 Copyright (c) Steve Scherf et al.
# Submitted via: ExactAudioCopyFreeDBPlugin 1.0
#
DISCID=a20ded0d
DTITLE=群星 - DTS 白金天王 1
DYEAR=2009
DGENRE=Acid
TTITLE0=01 为我的女人唱首歌
TTITLE1=02 错过的情人
TTITLE2=03 姑娘我爱你
TTITLE3=04 全世界最伤心的人
TTITLE4=05 往事如昔
TTITLE5=06 画心
TTITLE6=07 我要去西藏
TTITLE7=08 在路上
TTITLE8=09 哭泣的玫瑰
TTITLE9=10 离别的秋天
TTITLE10=11 你的泪会说谎
TTITLE11=12 多情的我遇上绝情的你
TTITLE12=13 在我心里从此永远有个你
EXTD=
EXTT0=
EXTT1=
EXTT2=
EXTT3=
EXTT4=
EXTT5=
EXTT6=
EXTT7=
EXTT8=
EXTT9=
EXTT10=
EXTT11=
EXTT12=
PLAYORDER=
